<svg width="16" height="20" viewBox="0 0 16 20" fill="none" xmlns="http://www.w3.org/2000/svg">
<path d="M15.489 6.87327C15.375 6.96174 13.3625 8.09606 13.3625 10.6183C13.3625 13.5357 15.9234 14.5678 16 14.5934C15.9882 14.6563 15.5932 16.0069 14.6498 17.383C13.8086 18.594 12.9301 19.803 11.5937 19.803C10.2572 19.803 9.91328 19.0265 8.37047 19.0265C6.86697 19.0265 6.33239 19.8286 5.10994 19.8286C3.88748 19.8286 3.03452 18.708 2.0538 17.3319C0.917823 15.7159 0 13.2054 0 10.8228C0 7.00105 2.48422 4.97421 4.92912 4.97421C6.22823 4.97421 7.31114 5.82741 8.12677 5.82741C8.90308 5.82741 10.1137 4.9231 11.5917 4.9231C12.1518 4.9231 14.1644 4.97421 15.489 6.87327ZM10.8901 3.30516C11.5013 2.57974 11.9337 1.5732 11.9337 0.566655C11.9337 0.427076 11.9219 0.285531 11.8963 0.171509C10.9019 0.208861 9.71871 0.834018 9.00528 1.66166C8.44515 2.29862 7.92237 3.30516 7.92237 4.32546C7.92237 4.4788 7.94792 4.63214 7.95971 4.68129C8.0226 4.69308 8.1248 4.70685 8.227 4.70685C9.11927 4.70685 10.2415 4.10921 10.8901 3.30516Z" fill="white"/>
</svg>
