<svg width="16" height="16" viewBox="0 0 16 16" fill="none" xmlns="http://www.w3.org/2000/svg">
<path d="M15.8397 8.17778C15.8397 7.52001 15.7863 7.04001 15.6708 6.54224H8.15967V9.5111H12.5685C12.4797 10.2489 11.9997 11.36 10.933 12.1066L10.918 12.206L13.2929 14.0458L13.4574 14.0622C14.9685 12.6667 15.8397 10.6133 15.8397 8.17778Z" fill="white"/>
<path d="M8.15988 15.9999C10.3199 15.9999 12.1332 15.2888 13.4577 14.0622L10.9332 12.1066C10.2577 12.5777 9.35097 12.9066 8.15988 12.9066C6.04434 12.9066 4.24879 11.511 3.60873 9.58215L3.51491 9.59012L1.04548 11.5012L1.01318 11.591C2.32873 14.2043 5.03096 15.9999 8.15988 15.9999Z" fill="white"/>
<path d="M3.60914 9.58229C3.44025 9.08452 3.34251 8.55114 3.34251 8.00006C3.34251 7.44891 3.44025 6.9156 3.60025 6.41783L3.59578 6.31181L1.0954 4.37L1.01359 4.40891C0.471393 5.49337 0.160278 6.71117 0.160278 8.00006C0.160278 9.28895 0.471393 10.5067 1.01359 11.5911L3.60914 9.58229Z" fill="white"/>
<path d="M8.15988 3.09332C9.66208 3.09332 10.6754 3.7422 11.2532 4.28447L13.511 2.08C12.1243 0.791116 10.3199 0 8.15988 0C5.03096 0 2.32873 1.79554 1.01318 4.40886L3.59984 6.41778C4.24879 4.48889 6.04434 3.09332 8.15988 3.09332Z" fill="white"/>
</svg>
