<svg width="30" height="30" viewBox="0 0 30 30" fill="none" xmlns="http://www.w3.org/2000/svg">
<path fill-rule="evenodd" clip-rule="evenodd" d="M18.0314 7.5H11.9686C9.50459 7.5 7.5 9.50459 7.5 11.9686V18.0314C7.5 20.4954 9.50459 22.5 11.9686 22.5H18.0314C20.4954 22.5 22.5 20.4954 22.5 18.0314V11.9686C22.5 9.50459 20.4954 7.5 18.0314 7.5ZM20.9914 18.0312C20.9914 19.6657 19.6663 20.9908 18.0318 20.9908H11.9689C10.3344 20.9908 9.00936 19.6657 9.00936 18.0312V11.9684C9.00936 10.3338 10.3344 9.00879 11.9689 9.00879H18.0318C19.6663 9.00879 20.9914 10.3338 20.9914 11.9684V18.0312ZM11.1216 14.9999C11.1216 12.8608 12.8619 11.1204 15.0011 11.1204C17.1403 11.1204 18.8806 12.8607 18.8806 14.9999C18.8806 17.1391 17.1403 18.8795 15.0011 18.8795C12.8619 18.8795 11.1216 17.1391 11.1216 14.9999ZM15.0014 17.3708C13.6922 17.3708 12.6309 16.3095 12.6309 15.0003C12.6309 13.6911 13.6922 12.6298 15.0014 12.6298C16.3106 12.6298 17.372 13.6911 17.372 15.0003C17.372 16.3095 16.3106 17.3708 15.0014 17.3708ZM18.8875 12.0793C19.4009 12.0793 19.8171 11.6631 19.8171 11.1497C19.8171 10.6363 19.4009 10.2201 18.8875 10.2201C18.374 10.2201 17.9578 10.6363 17.9578 11.1497C17.9578 11.6631 18.374 12.0793 18.8875 12.0793Z" fill="white"/>
</svg>
