<svg width="30" height="30" viewBox="0 0 30 30" fill="none" xmlns="http://www.w3.org/2000/svg">
<path d="M11.1344 21H8.23125V11.6531H11.1344V21ZM9.68125 10.3781C8.75312 10.3781 8 9.60938 8 8.68125C8 8.23535 8.17713 7.80772 8.49243 7.49243C8.80772 7.17713 9.23535 7 9.68125 7C10.1271 7 10.5548 7.17713 10.8701 7.49243C11.1854 7.80772 11.3625 8.23535 11.3625 8.68125C11.3625 9.60938 10.6094 10.3781 9.68125 10.3781ZM21.9969 21H19.1V16.45C19.1 15.3656 19.0781 13.975 17.5906 13.975C16.0813 13.975 15.85 15.1531 15.85 16.3719V21H12.95V11.6531H15.7344V12.9281H15.775C16.1625 12.1938 17.1094 11.4188 18.5219 11.4188C21.4594 11.4188 22 13.3531 22 15.8656V21H21.9969Z" fill="white"/>
</svg>
