<svg width="30" height="30" viewBox="0 0 30 30" fill="none" xmlns="http://www.w3.org/2000/svg">
<path fill-rule="evenodd" clip-rule="evenodd" d="M22.1471 9.74996C22.6126 10.2834 22.7769 11.4906 22.7769 11.4906C22.7769 11.4906 22.9412 12.9224 22.9412 14.3542V15.6737C22.9412 17.0775 22.7769 18.5093 22.7769 18.5093C22.7769 18.5093 22.6126 19.7166 22.1471 20.25C21.5742 20.8907 20.9269 20.9475 20.6058 20.9757C20.5893 20.9772 20.5736 20.9785 20.5588 20.9799C18.3408 21.1764 15 21.1764 15 21.1764C15 21.1764 10.8651 21.1483 9.6055 21.008C9.53857 20.9922 9.45615 20.9803 9.36242 20.9668C8.95767 20.9085 8.34213 20.8199 7.85296 20.25C7.38747 19.7166 7.22315 18.5094 7.22315 18.5094C7.22315 18.5094 7.05884 17.1056 7.05884 15.6738V14.3543C7.05884 12.9224 7.22315 11.4906 7.22315 11.4906C7.22315 11.4906 7.36004 10.2834 7.85296 9.74996C8.42588 9.10918 9.07308 9.05239 9.3942 9.02421C9.41075 9.02275 9.42643 9.02138 9.44119 9.02C11.6592 8.85157 15 8.82349 15 8.82349C15 8.82349 18.3408 8.85157 20.5588 9.02C20.5817 9.02213 20.6068 9.0241 20.6339 9.02623C20.9635 9.05213 21.5904 9.10138 22.1471 9.74996ZM13.0833 18.2565V12.1643L18.2861 15.2806L13.0833 18.2565Z" fill="white"/>
</svg>
