<svg width="17" height="18" viewBox="0 0 17 18" fill="none" xmlns="http://www.w3.org/2000/svg">
<path d="M14.86 6.76001H2.06004C1.70658 6.76001 1.42004 7.04655 1.42004 7.40001V16.36C1.42004 16.7135 1.70658 17 2.06004 17H14.86C15.2135 17 15.5 16.7135 15.5 16.36V7.40001C15.5 7.04655 15.2135 6.76001 14.86 6.76001Z" stroke="#001D4A" stroke-width="1.5" stroke-linecap="round" stroke-linejoin="round"/>
<path d="M5.26007 6.76V4.2C5.26007 3.35131 5.59721 2.53737 6.19733 1.93726C6.79745 1.33714 7.61138 1 8.46007 1C9.30876 1 10.1227 1.33714 10.7228 1.93726C11.3229 2.53737 11.6601 3.35131 11.6601 4.2V6.76" stroke="#001D4A" stroke-width="1.5" stroke-linecap="round" stroke-linejoin="round"/>
</svg>
